HIERARCHY
ROOT Hips
{
	OFFSET 0.00000 0.00000 0.00000
	CHANNELS 6 Xposition Yposition Zposition Zrotation Yrotation Xrotation 
	JOINT LHipJoint
	{
		OFFSET 0 0 0
		CHANNELS 3 Zrotation Yrotation Xrotation
		JOINT LeftHip
		{
			OFFSET 1.80322 -1.53100 0.99595
			CHANNELS 3 Zrotation Yrotation Xrotation
			JOINT LeftKnee
			{
				OFFSET 2.25177 -6.18669 0.00000
				CHANNELS 3 Zrotation Yrotation Xrotation
				JOINT LeftAnkle
				{
					OFFSET 2.26601 -6.22582 0.00000
					CHANNELS 3 Zrotation Yrotation Xrotation
					JOINT LeftToe
					{
						OFFSET 0.23701 -0.65119 2.15848
						CHANNELS 3 Zrotation Yrotation Xrotation
						End Site
						{
							OFFSET 0.00000 -0.00000 1.12949
						}
					}
				}
			}
		}
	}
	JOINT RHipJoint
	{
		OFFSET 0 0 0
		CHANNELS 3 Zrotation Yrotation Xrotation
		JOINT RightHip
		{
			OFFSET -1.93977 -1.53100 0.99595
			CHANNELS 3 Zrotation Yrotation Xrotation
			JOINT RightKnee
			{
				OFFSET -2.28036 -6.26523 0.00000
				CHANNELS 3 Zrotation Yrotation Xrotation
				JOINT RightAnkle
				{
					OFFSET -2.25490 -6.19528 0.00000
					CHANNELS 3 Zrotation Yrotation Xrotation
					JOINT RightToe
					{
						OFFSET -0.28375 -0.77960 2.23137
						CHANNELS 3 Zrotation Yrotation Xrotation
						End Site
						{
							OFFSET -0.00000 -0.00000 1.17899
						}
					}
				}
			}
		}
	}
	JOINT lowerback
	{
		OFFSET 0 0 0
		CHANNELS 3 Zrotation Yrotation Xrotation
		JOINT Chest
		{
			OFFSET -0.00088 2.12090 -0.02806
			CHANNELS 3 Zrotation Yrotation Xrotation
			JOINT Chest2
			{
				OFFSET -0.00286 2.09666 0.12974
				CHANNELS 3 Zrotation Yrotation Xrotation
				JOINT lowerneck
				{
					OFFSET 0 0 0
					CHANNELS 3 Zrotation Yrotation Xrotation
					JOINT Neck
					{
						OFFSET 0.07328 1.83526 0.07290
						CHANNELS 3 Zrotation Yrotation Xrotation
						JOINT Head
						{
							OFFSET -0.06683 1.74974 -0.49542
							CHANNELS 3 Zrotation Yrotation Xrotation
							End Site
							{
								OFFSET -0.03398 1.85163 -0.17573
							}
						}
					}
				}
				JOINT LeftCollar
				{
					OFFSET 0 0 0
					CHANNELS 3 Zrotation Yrotation Xrotation
					JOINT LeftShoulder
					{
						OFFSET 3.02113 1.18018 0.40602
CHANNELS 3 Zrotation Xrotation Yrotation
						JOINT LeftElbow
						{
OFFSET 0 -4.585380 -0.000000
CHANNELS 3 Zrotation Xrotation Yrotation
							JOINT LeftWrist
							{
OFFSET 0 -2.689350 -0.000000
CHANNELS 3 Zrotation Xrotation Yrotation
								JOINT lhand
								{
									OFFSET 0 0 0
CHANNELS 3 Zrotation Xrotation Yrotation
									JOINT LFingers
									{
OFFSET 0 -0.585060 -0.000000
CHANNELS 3 Zrotation Xrotation Yrotation
										End Site
										{
OFFSET 0 -0.471690 -0.000000
										}
									}
								}
								JOINT LThumb
								{
OFFSET 0 0.000000 0.000000
CHANNELS 3 Zrotation Xrotation Yrotation
									End Site
									{
OFFSET 0 -0.478890 0.478890
									}
								}
							}
						}
					}
				}
				JOINT RightCollar
				{
					OFFSET 0 0 0
					CHANNELS 3 Zrotation Yrotation Xrotation
					JOINT RightShoulder
					{
						OFFSET -2.95074 1.18843 0.31430
CHANNELS 3 Zrotation Xrotation Yrotation
						JOINT RightElbow
						{
OFFSET 0 -4.474500 -0.000000
CHANNELS 3 Zrotation Xrotation Yrotation
							JOINT RightWrist
							{
OFFSET 0 -2.938960 -0.000000
CHANNELS 3 Zrotation Xrotation Yrotation
								JOINT rhand
								{
									OFFSET 0 0 0
CHANNELS 3 Zrotation Xrotation Yrotation
									JOINT RFingers
									{
OFFSET 0 -0.405090 -0.000000
CHANNELS 3 Zrotation Xrotation Yrotation
										End Site
										{
OFFSET 0 -0.326600 -0.000000
										}
									}
								}
								JOINT RThumb
								{
OFFSET 0 0.000000 0.000000
CHANNELS 3 Zrotation Xrotation Yrotation
									End Site
									{
OFFSET 0 -0.331580 0.331580
									}
								}
							}
						}
					}
				}
			}
		}
	}
}
MOTION
Frames: 11
Frame Time: 0.008333333333333333
-6.615649 15.819906 -7.395762 -537.808135 -42.764976 -532.365653 0.000000 0.000000 0.000000 -18.073729 -4.059385 -12.699734 9.341021 17.018887 57.257292 0.293908 7.470384 10.257864 0.028298 1.084881 2.982313 0.000000 0.000000 0.000000 29.388133 3.117029 -19.471534 -0.964624 -6.253162 17.520714 -0.279839 -6.143137 -14.111133 -0.090875 -1.944011 5.351031 2.468549 -3.434217 -7.316559 2.110473 -5.102331 -6.397962 0.558039 -2.784749 -2.548608 2.558359 0.105576 -14.987110 -0.503834 -3.691283 38.181377 -1.639506 -2.316500 16.080304 0.000000 0.000000 0.000000 0.621304 11.888232 -15.266600 15.885494 -25.365036 3.596806 1.037530 21.646431 -12.120660 0.000000 0.000000 0.000000 -7.125000 0.000000 0.000000 -22.949362 40.935857 -2.447001 0.000000 0.000000 0.000000 -9.242144 13.739573 2.797917 -14.078499 -22.845990 -2.858973 -9.490927 17.016089 5.272819 0.000000 0.000000 0.000000 7.125000 0.000000 0.000000 14.207725 35.028183 3.570719
-6.971385 15.805469 -8.016054 -537.316053 -41.654780 -532.486477 0.000000 0.000000 0.000000 -16.600243 -6.874355 -22.313986 12.164769 18.459238 66.509950 -0.225768 8.840192 -0.356680 0.026995 1.056270 2.903767 0.000000 0.000000 0.000000 30.611432 2.503442 -16.348764 -0.890950 -6.016406 16.832101 -0.436086 -5.187813 -15.459527 -0.159607 -2.573953 7.094684 3.157108 -2.575072 -6.857792 1.774542 -3.951976 -6.175603 -0.096890 -2.226454 -2.630372 1.957795 -1.041158 -15.154605 0.359050 -5.453388 37.499156 -1.440001 -2.982280 15.795153 0.000000 0.000000 0.000000 1.332792 14.266228 -13.178332 15.743548 -25.171707 3.536192 1.088245 22.428880 -11.963561 0.000000 0.000000 0.000000 -7.125000 0.000000 0.000000 -22.853745 40.795693 -2.519813 0.000000 0.000000 0.000000 -9.598111 11.196635 10.480435 -16.956790 -26.800343 -4.068120 -10.529495 11.356792 4.509018 0.000000 0.000000 0.000000 7.125000 0.000000 0.000000 13.231815 34.324678 3.546186
-7.336376 15.727237 -8.618831 -537.222209 -39.832988 -532.304825 0.000000 0.000000 0.000000 -15.473269 -10.514578 -29.576653 12.001808 18.390994 65.994114 -0.151213 10.059004 -11.465924 0.002029 -0.280507 -0.770777 0.000000 0.000000 0.000000 31.261398 3.205787 -14.108889 -1.072149 -6.581682 18.481968 -0.631449 -5.061112 -17.701049 -0.196312 -2.853280 7.870607 3.660803 -1.609298 -6.537056 1.256635 -2.660598 -6.018946 -0.850249 -1.597809 -2.661006 1.237179 -1.977405 -15.021069 1.482580 -7.095879 37.196399 -1.110542 -3.621101 15.694940 0.000000 0.000000 0.000000 2.622228 17.205730 -12.170792 16.605294 -26.334380 3.910683 2.934595 19.184515 -11.928811 0.000000 0.000000 0.000000 -7.125000 0.000000 0.000000 -21.301087 40.932745 -2.252688 0.000000 0.000000 0.000000 -10.263042 7.825384 15.810029 -18.924215 -29.324237 -4.993713 -10.701312 8.763138 4.230155 0.000000 0.000000 0.000000 7.125000 0.000000 0.000000 13.046313 34.056025 3.581432
-7.744002 15.644984 -9.229870 -537.885907 -37.397236 -531.958698 0.000000 0.000000 0.000000 -14.718313 -13.940725 -33.125368 8.955949 16.777198 55.934559 0.223781 10.877190 -18.438308 0.025047 -1.021348 -2.807608 0.000000 0.000000 0.000000 31.037019 4.110571 -10.987993 -1.222425 -7.012517 19.752560 -0.843162 -4.910638 -19.801229 -0.271355 -3.351084 9.257726 3.858600 -0.719309 -5.873509 0.555862 -1.438989 -5.946356 -1.624061 -1.001361 -2.927522 0.723486 -2.545469 -14.853382 2.192534 -8.173545 37.225765 -0.912325 -4.070029 15.750416 0.000000 0.000000 0.000000 3.890858 20.202886 -10.572000 17.343476 -27.308294 4.243721 4.268450 16.640957 -11.914662 0.000000 0.000000 0.000000 -7.125000 0.000000 0.000000 -20.175043 41.041630 -2.064686 0.000000 0.000000 0.000000 -10.892753 4.044248 19.174809 -19.815244 -30.419166 -5.437531 -10.294634 7.689397 4.439145 0.000000 0.000000 0.000000 7.125000 0.000000 0.000000 13.409157 34.245115 3.622543
-8.195014 15.620512 -9.874593 -537.531229 -34.555470 -531.419481 0.000000 0.000000 0.000000 -12.079861 -16.945429 -34.281756 4.792286 13.138093 39.901363 0.373694 12.363585 -21.763660 0.048005 -1.413284 -3.886784 0.000000 0.000000 0.000000 31.440966 4.525797 -6.225854 -0.835811 -5.830373 16.293607 -0.876252 -4.245138 -19.711229 -0.239238 -3.147548 8.689853 4.882674 0.232457 -6.224016 0.221145 -0.258116 -6.107234 -2.507938 -0.469936 -2.846767 0.370883 -2.883504 -14.925477 2.492162 -8.725974 37.176711 -0.826608 -4.314641 15.791328 0.000000 0.000000 0.000000 4.642656 22.639834 -7.599403 17.313283 -27.268897 4.229891 4.550709 16.210545 -13.154516 0.000000 0.000000 0.000000 -7.125000 0.000000 0.000000 -20.336539 42.233147 -1.454419 0.000000 0.000000 0.000000 -11.271114 0.497513 21.052898 -20.011922 -30.656766 -5.537431 -10.367229 7.170475 4.563653 0.000000 0.000000 0.000000 7.125000 0.000000 0.000000 13.372068 34.371365 3.569946
-8.675599 15.592111 -10.554814 -536.911144 -31.998558 -530.905691 0.000000 0.000000 0.000000 -7.747948 -21.310336 -33.538546 1.907686 8.669800 24.768537 0.298197 14.781234 -23.897908 0.106981 -2.108378 -5.805233 0.000000 0.000000 0.000000 31.721955 3.704580 -0.159592 -0.305781 -3.553110 9.822898 -0.772207 -3.073554 -17.988727 -0.156130 -2.545858 7.016807 5.780728 0.866289 -6.903474 0.238193 0.461558 -6.315207 -2.963206 -0.163332 -2.630087 0.274381 -2.994173 -15.173212 2.466332 -8.829629 37.042621 -0.844537 -4.367881 15.787614 0.000000 0.000000 0.000000 4.785167 24.435449 -3.472305 16.420353 -26.087261 3.828934 4.423129 17.222676 -14.302013 0.000000 0.000000 0.000000 -7.125000 0.000000 0.000000 -20.839075 43.295296 -0.919464 0.000000 0.000000 0.000000 -11.405253 -2.171983 22.178033 -20.035882 -30.685508 -5.549662 -10.690683 7.455374 4.584163 0.000000 0.000000 0.000000 7.125000 0.000000 0.000000 13.114548 34.406277 3.486676
-9.195425 15.540936 -11.272187 -536.124135 -29.439540 -531.130464 0.000000 0.000000 0.000000 -3.945462 -24.524524 -32.953630 1.047190 6.507365 18.263907 0.517379 13.966389 -24.858393 0.289785 -3.459740 -9.561651 0.000000 0.000000 0.000000 31.586679 1.732042 8.354694 0.000000 0.000000 0.000000 -0.457355 -1.987720 -13.653913 -0.039679 -1.278717 3.516030 6.654994 1.257222 -7.167406 0.397816 0.891839 -6.384445 -3.263177 0.010436 -2.513331 0.462468 -2.960554 -15.430293 2.474316 -8.866107 36.983719 -0.891508 -4.360298 15.812443 0.000000 0.000000 0.000000 4.935481 25.718496 0.929635 15.197725 -24.420693 3.307288 3.275703 18.937652 -14.031848 0.000000 0.000000 0.000000 -7.125000 0.000000 0.000000 -21.728323 42.923007 -1.173783 0.000000 0.000000 0.000000 -10.970921 -3.195874 22.715786 -20.404216 -31.126218 -5.738844 -10.439142 7.385912 4.644938 0.000000 0.000000 0.000000 7.125000 0.000000 0.000000 13.328094 34.455038 3.529836
-9.784151 15.482438 -12.040575 -536.072426 -27.057906 -530.840688 0.000000 0.000000 0.000000 -4.556090 -23.865433 -31.711906 1.114480 6.706754 18.849499 0.602539 10.158321 -21.673863 0.390216 -4.011081 -11.107830 0.000000 0.000000 0.000000 30.460181 1.314203 12.068090 0.000000 0.000000 0.000000 -0.490339 -0.504393 -13.420853 -0.027584 1.071813 -2.946336 6.991941 1.410128 -8.104309 0.420073 0.940996 -6.626699 -3.416111 -0.003514 -2.241738 0.798795 -2.729589 -15.504045 2.464218 -8.823302 37.355266 -0.974222 -4.338855 16.003652 0.000000 0.000000 0.000000 5.156263 26.881602 4.450108 14.313452 -23.181024 2.950358 1.945430 20.490530 -13.409778 0.000000 0.000000 0.000000 -7.125000 0.000000 0.000000 -22.637680 42.211267 -1.650931 0.000000 0.000000 0.000000 -10.142840 -2.142061 22.995309 -20.860955 -31.665695 -5.976819 -10.643692 7.278547 4.702301 0.000000 0.000000 0.000000 7.125000 0.000000 0.000000 13.172651 34.521209 3.465092
-10.447212 15.531693 -12.870845 -538.020895 -24.659543 -530.367718 0.000000 0.000000 0.000000 -9.412401 -20.175770 -29.015553 1.299510 7.222109 20.375034 -0.023238 8.731199 -11.973358 0.127146 -2.289744 -6.307399 0.000000 0.000000 0.000000 26.983272 0.436884 16.291154 0.000000 0.000000 0.000000 -0.305342 0.099007 -10.394998 -0.419555 4.148423 -11.495773 5.726038 1.229487 -8.928907 0.027120 0.667024 -6.887464 -3.127717 -0.128162 -2.088139 1.288289 -2.278640 -15.172829 2.407913 -8.630256 38.022582 -1.082267 -4.287295 16.241729 0.000000 0.000000 0.000000 5.412895 27.705824 6.539449 13.837956 -22.502504 2.765843 1.123849 21.366504 -13.202386 0.000000 0.000000 0.000000 -7.125000 0.000000 0.000000 -23.255840 41.938736 -1.868724 0.000000 0.000000 0.000000 -9.203369 0.715768 22.051715 -20.611718 -31.372239 -5.846557 -10.474910 7.663841 4.332784 0.000000 0.000000 0.000000 7.125000 0.000000 0.000000 13.245795 34.147896 3.608472
-11.077351 15.644917 -13.677905 -541.854197 -22.835032 -529.990264 0.000000 0.000000 0.000000 -17.301960 -14.485106 -24.003024 1.114188 6.705570 18.846119 0.004374 4.958891 -7.222710 0.001540 -0.247805 -0.680773 0.000000 0.000000 0.000000 22.101772 1.153837 8.927824 -1.406930 -7.496807 21.198427 -0.416986 2.054065 -11.658916 -1.108992 6.690563 -18.801927 2.750636 0.688581 -8.621876 -0.848475 0.131752 -7.051964 -2.401462 -0.320818 -2.469018 1.588244 -1.897917 -14.583645 2.511861 -8.511419 38.498078 -1.088107 -4.283057 16.344438 0.000000 0.000000 0.000000 6.330805 26.829699 7.520113 13.482013 -21.989372 2.631039 1.124677 22.621357 -13.135212 0.000000 0.000000 0.000000 -7.125000 0.000000 0.000000 -23.231116 41.877109 -1.904211 0.000000 0.000000 0.000000 -8.031536 4.658957 18.369296 -19.226207 -29.698561 -5.142508 -11.012396 9.636331 4.874233 0.000000 0.000000 0.000000 7.125000 0.000000 0.000000 12.903804 34.708651 3.330910
-11.637665 15.775368 -14.397501 -545.459341 -19.678619 -528.965417 0.000000 0.000000 0.000000 -24.046799 -7.852843 -17.652536 0.449481 4.293080 11.903868 0.027870 3.090109 -5.673557 0.000000 0.024730 0.068023 0.000000 0.000000 0.000000 16.515789 2.463689 -1.467606 -5.143108 -13.532605 41.416363 -0.009307 -0.295179 -1.754843 -0.236592 3.093579 -8.542184 -0.316186 0.428971 -8.157705 -1.395122 -0.120316 -7.418558 -1.255849 -0.375667 -3.123431 1.907555 -1.392909 -14.427511 1.720589 -7.726293 38.931057 -1.371088 -4.079449 16.455445 0.000000 0.000000 0.000000 7.191726 24.897926 5.738773 13.922720 -22.623986 2.798385 1.984503 21.814697 -13.307226 0.000000 0.000000 0.000000 -7.125000 0.000000 0.000000 -22.568149 42.120626 -1.699089 0.000000 0.000000 0.000000 -7.659207 7.119886 12.076207 -16.249669 -25.857043 -3.754726 -9.236638 12.461306 4.652774 0.000000 0.000000 0.000000 7.125000 0.000000 0.000000 14.298633 34.407268 3.817288
